# xmcd
#
# Track frame offsets: 
#        150
#        13897
#        29731
#        46939
#        60599
#        80509
#
# Disc length: 1339 seconds
#
# Revision: 0
# Processed by: cddbd v1.5.2PL0 Copyright (c) Steve Scherf et al.
# Submitted via: ExactAudioCopy v0.99pb4
#
DISCID=49053906
DTITLE=Blackberry Smoke - New Honky Tonk Bootlegs
DYEAR=2008
DGENRE=Country
TTITLE0=Son of the Bourbon
TTITLE1=Lesson in a Bottle
TTITLE2=Keep On Keepin On
TTITLE3=The Only Thing She Left Behind
TTITLE4=Livin Hell
TTITLE5=Livin Hell - Dirty
EXTD=
EXTT0=
EXTT1=
EXTT2=
EXTT3=
EXTT4=
EXTT5=
PLAYORDER=
